<svg width="512" height="512" xmlns="http://www.w3.org/2000/svg"><path fill="none" d="M-1-1h582v402H-1z"/><g><path fill="#07cc2e" d="M257.123 60.338c-107.895 0-195.66 87.776-195.66 195.664 0 107.888 87.765 195.659 195.66 195.659 107.888 0 195.658-87.771 195.658-195.659 0-107.887-87.77-195.664-195.658-195.664zm0 360.46c-90.871 0-164.796-73.931-164.796-164.796 0-90.87 73.925-164.795 164.796-164.795 90.87 0 164.796 73.925 164.796 164.795 0 90.865-73.925 164.796-164.796 164.796z"/><path fill="#07cc2e" d="M348.617 174.362L223.249 302.094l-62.117-44.981c-7.882-5.708-18.912-3.944-24.632 3.938-5.708 7.894-3.944 18.917 3.944 24.632l74.418 53.884a17.571 17.571 0 0010.341 3.35c4.597 0 9.165-1.787 12.586-5.279l136-138.566c6.825-6.95 6.724-18.116-.237-24.941-6.938-6.819-18.11-6.718-24.935.231z"/></g></svg>